<?xml version="1.0" encoding="UTF-8" standalone="no"?>
<svg width="200" height="200" viewBox="0 0 200 200" xmlns="http://www.w3.org/2000/svg">
  <!-- Cloud shape representing infrastructure -->
  <path d="M120,90 C130,75 150,75 160,85 C170,75 190,80 190,100 C190,115 175,120 160,120 
           C160,125 155,130 145,130 C135,130 90,130 80,130 C65,130 50,120 50,105 
           C50,90 65,80 80,85 C85,70 105,70 120,90 Z" 
        fill="#FFE0B2" stroke="#FF8C00" stroke-width="3"/>
  
  <!-- Tag symbol on the cloud -->
  <path d="M100,100 L115,100 L115,115 L107.5,122 L100,115 Z" 
        fill="#FF8C00" stroke="#FF8C00" stroke-width="1"/>
  <circle cx="107.5" cy="105" r="2" fill="#FFE0B2"/>
  
  <!-- Magnifying glass rim -->
  <circle cx="70" cy="110" r="35" fill="none" stroke="#FF8C00" stroke-width="6"/>
  
  <!-- Magnifying glass handle -->
  <line x1="95" y1="135" x2="120" y2="160" stroke="#FF8C00" stroke-width="10" stroke-linecap="round"/>
  
  <!-- Magnifying glass lens highlight -->
  <circle cx="70" cy="110" r="28" fill="none" stroke="#FFE0B2" stroke-width="2" stroke-opacity="0.7"/>
  
  <!-- Scan lines in magnifying glass -->
  <line x1="50" y1="110" x2="90" y2="110" stroke="#FF8C00" stroke-width="2" stroke-opacity="0.5"/>
  <line x1="70" y1="90" x2="70" y2="130" stroke="#FF8C00" stroke-width="2" stroke-opacity="0.5"/>
</svg>